<svg width="16" height="16" viewBox="0 0 16 16" fill="none" xmlns="http://www.w3.org/2000/svg">
<g clip-path="url(#clip0_3_35)">
<path d="M11.1875 8.90625V7.26562C11.1875 6.70618 10.9653 6.16966 10.5697 5.77407C10.1741 5.37849 9.63757 5.15625 9.07812 5.15625H8.14062C7.95414 5.15625 7.7753 5.08217 7.64344 4.95031C7.51158 4.81845 7.4375 4.63961 7.4375 4.45312V3.51562C7.4375 2.95618 7.21526 2.41966 6.81968 2.02407C6.42409 1.62849 5.88757 1.40625 5.32812 1.40625H4.15625M4.15625 9.375H8.84375M4.15625 11.25H6.5M5.5625 1.40625H2.51562C2.1275 1.40625 1.8125 1.72125 1.8125 2.10938V12.8906C1.8125 13.2787 2.1275 13.5938 2.51562 13.5938H10.4844C10.8725 13.5938 11.1875 13.2787 11.1875 12.8906V7.03125C11.1875 5.53941 10.5949 4.10867 9.53998 3.05377C8.48508 1.99888 7.05434 1.40625 5.5625 1.40625Z" stroke="#7D7D7D" stroke-width="1.5" stroke-linecap="round" stroke-linejoin="round"/>
</g>
<defs>
<clipPath id="clip0_3_35">
<rect width="16" height="16" fill="white"/>
</clipPath>
</defs>
</svg>
