<svg width="25" height="24" viewBox="0 0 25 24" fill="none" xmlns="http://www.w3.org/2000/svg">
<path d="M17.5646 4.487L19.3219 2.799C19.6882 2.44733 20.1851 2.24976 20.7031 2.24976C21.2212 2.24976 21.718 2.44733 22.0844 2.799C22.4507 3.15068 22.6565 3.62766 22.6565 4.125C22.6565 4.62235 22.4507 5.09933 22.0844 5.451L11.0229 16.07C10.4722 16.5984 9.79309 16.9867 9.04688 17.2L6.25 18L7.08333 15.315C7.3055 14.5986 7.71004 13.9467 8.26042 13.418L17.5646 4.487ZM17.5646 4.487L20.3125 7.125M18.75 14V18.75C18.75 19.3467 18.5031 19.919 18.0635 20.341C17.624 20.763 17.0279 21 16.4062 21H5.46875C4.84715 21 4.25101 20.763 3.81147 20.341C3.37193 19.919 3.125 19.3467 3.125 18.75V8.25C3.125 7.65327 3.37193 7.08097 3.81147 6.65901C4.25101 6.23706 4.84715 6 5.46875 6H10.4167" stroke="black" stroke-width="1.5" stroke-linecap="round" stroke-linejoin="round"/>
</svg>
